<svg width="197" height="36" viewBox="0 0 197 36" fill="none" xmlns="http://www.w3.org/2000/svg">
<path d="M52.5247 18.551V13.8314C52.5247 10.0173 50.3844 6.6148 44.183 6.6148H41.0824C39.9299 6.6148 38.9421 7.52031 38.9421 8.59045V24.0115C38.9421 25.0816 39.9299 25.9872 41.0824 25.9872H44.183C50.4118 25.9872 52.5247 22.42 52.5247 18.551ZM48.6831 18.551C48.6831 20.7188 47.6679 22.5023 44.6495 22.5023H42.7836V10.0996H44.6495C47.613 10.0996 48.6831 11.746 48.6831 13.8314V18.551ZM60.8288 26.1792C64.7252 26.1792 66.7832 23.9566 66.7832 21.0755V16.987C66.7832 14.1058 64.7252 11.8832 60.8288 11.8832C56.9324 11.8832 54.8744 14.1058 54.8744 16.987V21.0755C54.8744 23.9566 56.9324 26.1792 60.8288 26.1792ZM60.8288 22.9414C59.4019 22.9414 58.6611 22.2279 58.6611 21.0755V16.9595C58.6611 15.8345 59.4019 15.1211 60.8288 15.1211C62.2556 15.1211 62.9965 15.8345 62.9965 16.9595V21.0755C62.9965 22.2279 62.2556 22.9414 60.8288 22.9414ZM76.2338 15.3955C77.2765 15.4503 78.1545 14.7369 78.1545 13.6668C78.1545 12.7338 77.6332 12.0204 75.9045 12.0204C75.0264 12.0204 73.7642 12.4594 72.502 13.2003C72.1178 12.7064 71.6239 12.3497 71.0477 12.3497C70.0599 12.3497 69.1818 13.0082 69.1818 13.9961C69.1818 14.4076 69.3464 14.6272 69.5659 14.9016C69.7855 15.2308 69.8678 15.5601 69.8678 16.1912V24.478C69.8678 25.4384 70.691 26.1792 71.7611 26.1792C72.8313 26.1792 73.6544 25.4384 73.6544 24.478V16.1912C73.6544 16.0266 73.627 15.8619 73.5996 15.6699C74.5599 15.2857 75.0539 15.3406 76.2338 15.3955ZM90.801 17.5906C90.801 13.8863 89.182 11.9106 85.2033 11.9106C82.9258 11.9106 80.5111 12.5692 80.5111 14.1881C80.5111 14.8741 80.9502 15.7796 82.1026 15.7796C82.624 15.7796 82.9258 15.5875 83.1453 15.5052C83.6941 15.2583 84.1606 15.0662 84.9289 15.0662C86.3283 15.0662 87.0143 15.6699 87.0143 16.9595V17.8376C86.3009 17.6181 85.5874 17.5632 84.8466 17.5632C81.2246 17.5632 79.4135 18.9626 79.4135 21.7615V21.8438C79.4135 24.4505 81.1148 26.1792 84.2978 26.1792C85.8344 26.1792 86.9869 25.7676 88.0021 24.9444C88.6332 25.8225 89.3192 26.0969 90.3345 26.0969C91.7888 26.0969 92.3101 25.5481 92.3101 24.6701C92.3101 24.0938 92.0906 23.792 91.679 23.6273C91.2126 23.4353 90.801 23.5176 90.801 22.6944V17.5906ZM85.0661 20.2248C85.6149 20.2248 86.3283 20.3072 87.0143 20.4444V22.42C86.3009 22.9688 85.5874 23.1334 84.874 23.1334C83.6941 23.1334 83.1728 22.7767 83.1728 21.8712V21.7889C83.1728 20.9657 83.4746 20.2248 85.0661 20.2248ZM109.665 24.478C109.665 25.4109 110.296 26.1518 111.558 26.1518C112.82 26.1518 113.451 25.4109 113.451 24.478V16.8223C113.451 13.8863 111.448 11.9106 108.21 11.9106C106.729 11.9106 105.549 12.3222 104.067 13.118C103.079 12.3222 102.036 11.9106 100.884 11.9106C99.704 11.9106 98.4144 12.3497 97.1796 13.118C96.8229 12.6515 96.3564 12.3497 95.7253 12.3497C94.7924 12.3497 93.9417 12.9808 93.9417 13.9686C93.9417 14.2704 94.0241 14.49 94.4082 15.0113C94.518 15.176 94.6277 15.2583 94.6277 16.1638V24.478C94.6277 25.4109 95.2588 26.1518 96.5211 26.1518C97.7833 26.1518 98.4144 25.4109 98.4144 24.478V16.1638C98.4144 16.0815 98.4144 15.9443 98.3869 15.8619C99.2101 15.4503 100.033 15.1485 100.719 15.1485C101.927 15.1485 102.146 16.1089 102.146 17.3711V24.478C102.146 25.4109 102.777 26.1518 104.04 26.1518C105.302 26.1518 105.933 25.4109 105.933 24.478V16.8223C105.933 16.5754 105.905 16.3559 105.878 16.1089C106.619 15.5052 107.36 15.1485 108.073 15.1485C109.088 15.1485 109.665 15.9168 109.665 16.8772V24.478ZM127.593 17.5906C127.593 13.8863 125.974 11.9106 121.995 11.9106C119.717 11.9106 117.303 12.5692 117.303 14.1881C117.303 14.8741 117.742 15.7796 118.894 15.7796C119.416 15.7796 119.717 15.5875 119.937 15.5052C120.486 15.2583 120.952 15.0662 121.72 15.0662C123.12 15.0662 123.806 15.6699 123.806 16.9595V17.8376C123.092 17.6181 122.379 17.5632 121.638 17.5632C118.016 17.5632 116.205 18.9626 116.205 21.7615V21.8438C116.205 24.4505 117.906 26.1792 121.089 26.1792C122.626 26.1792 123.778 25.7676 124.794 24.9444C125.425 25.8225 126.111 26.0969 127.126 26.0969C128.58 26.0969 129.102 25.5481 129.102 24.6701C129.102 24.0938 128.882 23.792 128.471 23.6273C128.004 23.4353 127.593 23.5176 127.593 22.6944V17.5906ZM121.858 20.2248C122.406 20.2248 123.12 20.3072 123.806 20.4444V22.42C123.092 22.9688 122.379 23.1334 121.666 23.1334C120.486 23.1334 119.964 22.7767 119.964 21.8712V21.7889C119.964 20.9657 120.266 20.2248 121.858 20.2248ZM135.857 24.0938C135.857 22.9414 134.815 21.981 133.58 21.981C132.29 21.981 131.275 22.9414 131.275 24.0938C131.275 25.2463 132.29 26.2341 133.58 26.2341C134.815 26.2341 135.857 25.2463 135.857 24.0938ZM141.662 26.1792C142.951 26.1792 143.72 25.6853 143.72 24.6975C143.72 24.1761 143.5 24.0389 143.226 23.7371C142.842 23.3255 142.814 23.1883 142.814 22.6121V7.87702C142.814 6.91664 141.991 6.17577 140.921 6.17577C139.851 6.17577 139.028 6.97152 139.028 7.87702V22.9414C139.028 25.8225 140.564 26.1792 141.662 26.1792ZM156.935 17.5906C156.935 13.8863 155.316 11.9106 151.337 11.9106C149.06 11.9106 146.645 12.5692 146.645 14.1881C146.645 14.8741 147.084 15.7796 148.236 15.7796C148.758 15.7796 149.06 15.5875 149.279 15.5052C149.828 15.2583 150.294 15.0662 151.063 15.0662C152.462 15.0662 153.148 15.6699 153.148 16.9595V17.8376C152.435 17.6181 151.721 17.5632 150.98 17.5632C147.358 17.5632 145.547 18.9626 145.547 21.7615V21.8438C145.547 24.4505 147.248 26.1792 150.431 26.1792C151.968 26.1792 153.121 25.7676 154.136 24.9444C154.767 25.8225 155.453 26.0969 156.468 26.0969C157.922 26.0969 158.444 25.5481 158.444 24.6701C158.444 24.0938 158.224 23.792 157.813 23.6273C157.346 23.4353 156.935 23.5176 156.935 22.6944V17.5906ZM151.2 20.2248C151.749 20.2248 152.462 20.3072 153.148 20.4444V22.42C152.435 22.9688 151.721 23.1334 151.008 23.1334C149.828 23.1334 149.306 22.7767 149.306 21.8712V21.7889C149.306 20.9657 149.608 20.2248 151.2 20.2248ZM164.548 16.1912C164.548 16.0266 164.521 15.8619 164.493 15.6699C165.344 15.2857 166.03 15.0936 166.606 15.0936C167.704 15.0936 168.39 15.9443 168.39 17.3162V24.478C168.39 25.4109 169.076 26.1518 170.283 26.1518C171.49 26.1518 172.176 25.4109 172.176 24.478V17.3162C172.176 14.1058 170.448 11.9655 166.99 11.9655C165.893 11.9655 164.603 12.3222 163.368 13.1454C162.984 12.6515 162.49 12.3497 161.914 12.3497C160.871 12.3497 160.075 13.0357 160.075 13.9412C160.075 14.2979 160.158 14.49 160.542 15.0113C160.652 15.176 160.761 15.2583 160.761 16.1638V24.478C160.761 25.4109 161.393 26.1518 162.655 26.1518C163.917 26.1518 164.548 25.4109 164.548 24.478V16.1912ZM180.431 12.0204C176.507 12.0204 175.217 14.4351 175.217 17.7004V20.8011C175.217 24.0115 177.056 26.1792 180.239 26.1792C181.638 26.1792 182.763 25.7128 184.108 24.9719C184.519 25.5756 185.068 26.0146 185.754 26.0146C186.605 26.0146 187.538 25.4384 187.538 24.3408C187.538 23.9566 187.428 23.6822 187.154 23.4078C186.797 23.0511 186.632 22.859 186.632 22.4474V7.84958C186.632 6.94408 185.946 6.17577 184.739 6.17577C183.532 6.17577 182.846 6.91664 182.846 7.84958V12.5418C181.858 12.1302 181.282 12.0204 180.431 12.0204ZM182.846 21.8987C182.846 22.0633 182.873 22.2279 182.9 22.42C182.05 22.8042 181.364 22.9962 180.788 22.9962C179.608 22.9962 179.004 22.2279 179.004 20.8011V17.7004C179.004 15.9991 179.498 15.1485 180.842 15.1485C181.309 15.1485 181.995 15.2583 182.846 15.5052V21.8987Z" fill="url(#paint0_linear)"/>
<path d="M8.78707 30.4579C-2.27143 33.9233 3.73326 19.9082 3.27478 14.3545C2.81629 8.80079 0.187029 2.46876 4.8725 1.69894C9.50317 0.938129 26.0401 12.0333 26.4337 16.7264C26.8274 21.4195 19.8456 26.9924 8.78707 30.4579Z" fill="url(#paint1_linear)"/>
<path d="M18.581 18.5982C17.129 19.4492 12.8635 18.1583 14.4011 14.3197C15.9386 10.481 10.7097 9.89411 12.0525 8.62259C13.7727 6.99369 17.4046 12.1081 18.0562 12.7483C18.7077 13.3884 21.2722 17.0209 18.581 18.5982Z" fill="#302F3F"/>
<path d="M7.35141 10.0759C7.03999 10.6925 6.79927 11.4232 7.23737 12.1731C7.67547 12.9231 8.7489 12.7154 9.82774 13.2631C10.577 13.6435 10.7594 14.5944 11.4355 13.9024C12.4614 12.8524 11.2482 10.633 10.2687 9.71983C9.36591 8.87821 8.09611 8.60135 7.35141 10.0759Z" fill="#302F3F"/>
<path d="M7.30684 22.1276C7.19086 23.3206 7.38554 24.4601 7.88286 25.0803C8.72129 26.1259 9.92128 25.5022 11.299 24.6704C12.6767 23.8387 17.2273 24.0198 17.2843 21.4893C17.3214 19.8455 14.1855 21.2018 13.2031 19.3595C11.2782 15.7499 6.90858 13.9552 7.54604 18.421C7.68669 19.4064 7.50955 20.0426 7.30684 22.1276Z" fill="#302F3F"/>
<defs>
<linearGradient id="paint0_linear" x1="37.2134" y1="25.561" x2="196.135" y2="25.1735" gradientUnits="userSpaceOnUse">
<stop stop-color="#F37F7F"/>
<stop offset="1" stop-color="#944B8C"/>
</linearGradient>
<linearGradient id="paint1_linear" x1="1.65075" y1="21.7804" x2="26.6809" y2="19.6704" gradientUnits="userSpaceOnUse">
<stop stop-color="#F37F7F"/>
<stop offset="1" stop-color="#944B8C"/>
</linearGradient>
</defs>
</svg>
